<mxfile host="app.diagrams.net" agent="Mozilla/5.0 (X11; Linux x86_64; rv:133.0) Gecko/20100101 Firefox/133.0" version="25.0.3">
  <diagram name="Página-1" id="T3JO_ROMkJZ36bOjNvr4">
    <mxGraphModel dx="1080" dy="453" grid="1" gridSize="10" guides="1" tooltips="1" connect="1" arrows="1" fold="1" page="1" pageScale="1" pageWidth="827" pageHeight="1169" math="0" shadow="0">
      <root>
        <mxCell id="0" />
        <mxCell id="1" parent="0" />
        <mxCell id="nP1nx30AsUULx4-1qq16-39" value="Produto" style="swimlane;childLayout=stackLayout;horizontal=1;startSize=30;horizontalStack=0;rounded=1;fontSize=14;fontStyle=0;strokeWidth=2;resizeParent=0;resizeLast=1;shadow=0;dashed=0;align=center;arcSize=4;whiteSpace=wrap;html=1;" parent="1" vertex="1">
          <mxGeometry x="630" y="40" width="100" height="120" as="geometry" />
        </mxCell>
        <mxCell id="nP1nx30AsUULx4-1qq16-40" value="+id&lt;br&gt;+nome&lt;br&gt;&lt;div&gt;+descrição&lt;/div&gt;&lt;div&gt;+categoria&lt;br&gt;&lt;/div&gt;&lt;div&gt;+valor&lt;/div&gt;" style="align=left;strokeColor=none;fillColor=none;spacingLeft=4;fontSize=12;verticalAlign=top;resizable=0;rotatable=0;part=1;html=1;" parent="nP1nx30AsUULx4-1qq16-39" vertex="1">
          <mxGeometry y="30" width="100" height="90" as="geometry" />
        </mxCell>
        <mxCell id="nP1nx30AsUULx4-1qq16-41" value="Vendedor" style="swimlane;childLayout=stackLayout;horizontal=1;startSize=40;horizontalStack=0;rounded=1;fontSize=14;fontStyle=0;strokeWidth=2;resizeParent=0;resizeLast=1;shadow=0;dashed=0;align=center;arcSize=4;whiteSpace=wrap;html=1;" parent="1" vertex="1">
          <mxGeometry x="150" y="40" width="90" height="100" as="geometry" />
        </mxCell>
        <mxCell id="nP1nx30AsUULx4-1qq16-42" value="&lt;div&gt;+id&lt;/div&gt;&lt;div&gt;+comissão&lt;br&gt;&lt;/div&gt;" style="align=left;strokeColor=none;fillColor=none;spacingLeft=4;fontSize=12;verticalAlign=top;resizable=0;rotatable=0;part=1;html=1;" parent="nP1nx30AsUULx4-1qq16-41" vertex="1">
          <mxGeometry y="40" width="90" height="60" as="geometry" />
        </mxCell>
        <mxCell id="Orzh0CUPrdrKZRpFlpC1-22" value="&lt;div&gt;+id&lt;/div&gt;&lt;div&gt;+comissão&lt;br&gt;&lt;/div&gt;" style="align=left;strokeColor=none;fillColor=none;spacingLeft=4;fontSize=12;verticalAlign=top;resizable=0;rotatable=0;part=1;html=1;" vertex="1" parent="nP1nx30AsUULx4-1qq16-41">
          <mxGeometry y="100" width="90" as="geometry" />
        </mxCell>
        <mxCell id="nP1nx30AsUULx4-1qq16-43" value="Pedido" style="swimlane;childLayout=stackLayout;horizontal=1;startSize=50;horizontalStack=0;rounded=1;fontSize=14;fontStyle=0;strokeWidth=2;resizeParent=0;resizeLast=1;shadow=0;dashed=0;align=center;arcSize=4;whiteSpace=wrap;html=1;" parent="1" vertex="1">
          <mxGeometry x="450" y="390" width="130" height="190" as="geometry" />
        </mxCell>
        <mxCell id="nP1nx30AsUULx4-1qq16-44" value="&lt;div&gt;+id&lt;/div&gt;&lt;div&gt;+idCliente&lt;/div&gt;&lt;div&gt;+idPagamento&lt;br&gt;&lt;/div&gt;&lt;div&gt;+descrião&lt;br&gt;&lt;/div&gt;+data_do_pedido&lt;br&gt;&lt;div&gt;+Endereço&lt;/div&gt;&lt;div&gt;+CEP&lt;br&gt;&lt;/div&gt;&lt;div&gt;+status&lt;/div&gt;&lt;div&gt;+codrastreio&lt;br&gt;&lt;/div&gt;" style="align=left;strokeColor=none;fillColor=none;spacingLeft=4;fontSize=12;verticalAlign=top;resizable=0;rotatable=0;part=1;html=1;" parent="nP1nx30AsUULx4-1qq16-43" vertex="1">
          <mxGeometry y="50" width="130" height="140" as="geometry" />
        </mxCell>
        <mxCell id="nP1nx30AsUULx4-1qq16-45" value="Fornecedor" style="swimlane;childLayout=stackLayout;horizontal=1;startSize=40;horizontalStack=0;rounded=1;fontSize=14;fontStyle=0;strokeWidth=2;resizeParent=0;resizeLast=1;shadow=0;dashed=0;align=center;arcSize=4;whiteSpace=wrap;html=1;" parent="1" vertex="1">
          <mxGeometry x="280" y="390" width="110" height="160" as="geometry" />
        </mxCell>
        <mxCell id="nP1nx30AsUULx4-1qq16-46" value="+id&lt;br&gt;+CNPJ&lt;br&gt;&lt;div&gt;+Razão Social&lt;br&gt;&lt;/div&gt;&lt;div&gt;+Endereço&lt;/div&gt;&lt;div&gt;+CEP&lt;/div&gt;&lt;div&gt;+Telefone&lt;br&gt;&lt;/div&gt;&lt;div&gt;+E-mail&lt;br&gt;&lt;/div&gt;" style="align=left;strokeColor=none;fillColor=none;spacingLeft=4;fontSize=12;verticalAlign=top;resizable=0;rotatable=0;part=1;html=1;" parent="nP1nx30AsUULx4-1qq16-45" vertex="1">
          <mxGeometry y="40" width="110" height="120" as="geometry" />
        </mxCell>
        <mxCell id="nP1nx30AsUULx4-1qq16-61" style="edgeStyle=orthogonalEdgeStyle;rounded=0;orthogonalLoop=1;jettySize=auto;html=1;entryX=0.5;entryY=0;entryDx=0;entryDy=0;" parent="1" source="nP1nx30AsUULx4-1qq16-47" target="nP1nx30AsUULx4-1qq16-51" edge="1">
          <mxGeometry relative="1" as="geometry" />
        </mxCell>
        <mxCell id="nP1nx30AsUULx4-1qq16-47" value="Cliente" style="swimlane;childLayout=stackLayout;horizontal=1;startSize=50;horizontalStack=0;rounded=1;fontSize=14;fontStyle=0;strokeWidth=2;resizeParent=0;resizeLast=1;shadow=0;dashed=0;align=center;arcSize=4;whiteSpace=wrap;html=1;" parent="1" vertex="1">
          <mxGeometry x="280" y="570" width="110" height="150" as="geometry" />
        </mxCell>
        <mxCell id="nP1nx30AsUULx4-1qq16-48" value="&lt;div&gt;+id&lt;/div&gt;&lt;div&gt;+idCartão&lt;br&gt;&lt;/div&gt;&lt;div&gt;+Endereço&lt;/div&gt;&lt;div&gt;+CEP&lt;/div&gt;&lt;div&gt;+Telefone&lt;br&gt;&lt;/div&gt;&lt;div&gt;+E-mail&lt;br&gt;&lt;/div&gt;" style="align=left;strokeColor=none;fillColor=none;spacingLeft=4;fontSize=12;verticalAlign=top;resizable=0;rotatable=0;part=1;html=1;" parent="nP1nx30AsUULx4-1qq16-47" vertex="1">
          <mxGeometry y="50" width="110" height="100" as="geometry" />
        </mxCell>
        <mxCell id="nP1nx30AsUULx4-1qq16-51" value="Pessoa fisica" style="swimlane;childLayout=stackLayout;horizontal=1;startSize=40;horizontalStack=0;rounded=1;fontSize=14;fontStyle=0;strokeWidth=2;resizeParent=0;resizeLast=1;shadow=0;dashed=0;align=center;arcSize=4;whiteSpace=wrap;html=1;" parent="1" vertex="1">
          <mxGeometry x="210" y="750" width="110" height="100" as="geometry" />
        </mxCell>
        <mxCell id="nP1nx30AsUULx4-1qq16-52" value="&lt;div&gt;+CPF&lt;/div&gt;&lt;div&gt;+NomeCompleto&lt;/div&gt;&lt;div&gt;+Apelido&lt;br&gt;&lt;/div&gt;" style="align=left;strokeColor=none;fillColor=none;spacingLeft=4;fontSize=12;verticalAlign=top;resizable=0;rotatable=0;part=1;html=1;" parent="nP1nx30AsUULx4-1qq16-51" vertex="1">
          <mxGeometry y="40" width="110" height="60" as="geometry" />
        </mxCell>
        <mxCell id="nP1nx30AsUULx4-1qq16-54" value="Pessoa juridica" style="swimlane;childLayout=stackLayout;horizontal=1;startSize=40;horizontalStack=0;rounded=1;fontSize=14;fontStyle=0;strokeWidth=2;resizeParent=0;resizeLast=1;shadow=0;dashed=0;align=center;arcSize=4;whiteSpace=wrap;html=1;" parent="1" vertex="1">
          <mxGeometry x="340" y="750" width="130" height="80" as="geometry" />
        </mxCell>
        <mxCell id="nP1nx30AsUULx4-1qq16-55" value="&lt;div&gt;+CNPJ&lt;/div&gt;&lt;div&gt;+Razão Social&lt;br&gt;&lt;/div&gt;" style="align=left;strokeColor=none;fillColor=none;spacingLeft=4;fontSize=12;verticalAlign=top;resizable=0;rotatable=0;part=1;html=1;" parent="nP1nx30AsUULx4-1qq16-54" vertex="1">
          <mxGeometry y="40" width="130" height="40" as="geometry" />
        </mxCell>
        <mxCell id="nP1nx30AsUULx4-1qq16-57" style="edgeStyle=orthogonalEdgeStyle;rounded=0;orthogonalLoop=1;jettySize=auto;html=1;entryX=0.5;entryY=0;entryDx=0;entryDy=0;" parent="1" source="nP1nx30AsUULx4-1qq16-48" target="nP1nx30AsUULx4-1qq16-54" edge="1">
          <mxGeometry relative="1" as="geometry">
            <mxPoint x="550" y="930" as="targetPoint" />
          </mxGeometry>
        </mxCell>
        <mxCell id="nP1nx30AsUULx4-1qq16-58" value="Frete" style="swimlane;childLayout=stackLayout;horizontal=1;startSize=50;horizontalStack=0;rounded=1;fontSize=14;fontStyle=0;strokeWidth=2;resizeParent=0;resizeLast=1;shadow=0;dashed=0;align=center;arcSize=4;whiteSpace=wrap;html=1;" parent="1" vertex="1">
          <mxGeometry x="240" y="1290" width="160" height="130" as="geometry" />
        </mxCell>
        <mxCell id="nP1nx30AsUULx4-1qq16-59" value="&lt;div&gt;+End.Cliente&lt;/div&gt;&lt;div&gt;+Valordofrete&lt;/div&gt;&lt;div&gt;+Cod.Pedido&lt;/div&gt;&lt;div&gt;+CodFrete&lt;/div&gt;&lt;div&gt;+Volume&lt;br&gt;&lt;/div&gt;" style="align=left;strokeColor=none;fillColor=none;spacingLeft=4;fontSize=12;verticalAlign=top;resizable=0;rotatable=0;part=1;html=1;" parent="nP1nx30AsUULx4-1qq16-58" vertex="1">
          <mxGeometry y="50" width="160" height="80" as="geometry" />
        </mxCell>
        <mxCell id="nP1nx30AsUULx4-1qq16-62" value="Estoque" style="swimlane;childLayout=stackLayout;horizontal=1;startSize=30;horizontalStack=0;rounded=1;fontSize=14;fontStyle=0;strokeWidth=2;resizeParent=0;resizeLast=1;shadow=0;dashed=0;align=center;arcSize=4;whiteSpace=wrap;html=1;" parent="1" vertex="1">
          <mxGeometry x="270" y="280" width="110" height="80" as="geometry" />
        </mxCell>
        <mxCell id="nP1nx30AsUULx4-1qq16-63" value="&lt;div&gt;+id&lt;/div&gt;&lt;div&gt;+local&lt;/div&gt;" style="align=left;strokeColor=none;fillColor=none;spacingLeft=4;fontSize=12;verticalAlign=top;resizable=0;rotatable=0;part=1;html=1;" parent="nP1nx30AsUULx4-1qq16-62" vertex="1">
          <mxGeometry y="30" width="110" height="50" as="geometry" />
        </mxCell>
        <mxCell id="7XoWv0YTlWbVzO8A-Aqj-21" value="FornProd" style="swimlane;childLayout=stackLayout;horizontal=1;startSize=40;horizontalStack=0;rounded=1;fontSize=14;fontStyle=0;strokeWidth=2;resizeParent=0;resizeLast=1;shadow=0;dashed=0;align=center;arcSize=4;whiteSpace=wrap;html=1;" parent="1" vertex="1">
          <mxGeometry x="450" y="280" width="120" height="90" as="geometry" />
        </mxCell>
        <mxCell id="7XoWv0YTlWbVzO8A-Aqj-22" value="+idFornecedor&lt;br&gt;+idProduto" style="align=left;strokeColor=none;fillColor=none;spacingLeft=4;fontSize=12;verticalAlign=top;resizable=0;rotatable=0;part=1;html=1;" parent="7XoWv0YTlWbVzO8A-Aqj-21" vertex="1">
          <mxGeometry y="40" width="120" height="50" as="geometry" />
        </mxCell>
        <mxCell id="7XoWv0YTlWbVzO8A-Aqj-23" value="" style="edgeStyle=entityRelationEdgeStyle;fontSize=12;html=1;endArrow=ERmandOne;startArrow=ERmandOne;rounded=0;entryX=0;entryY=0.133;entryDx=0;entryDy=0;exitX=1;exitY=0.25;exitDx=0;exitDy=0;entryPerimeter=0;" parent="1" source="7XoWv0YTlWbVzO8A-Aqj-22" target="nP1nx30AsUULx4-1qq16-40" edge="1">
          <mxGeometry width="100" height="100" relative="1" as="geometry">
            <mxPoint x="350" y="200" as="sourcePoint" />
            <mxPoint x="682.02" y="242" as="targetPoint" />
          </mxGeometry>
        </mxCell>
        <mxCell id="7XoWv0YTlWbVzO8A-Aqj-26" value="Produto/Estoque" style="swimlane;childLayout=stackLayout;horizontal=1;startSize=30;horizontalStack=0;rounded=1;fontSize=14;fontStyle=0;strokeWidth=2;resizeParent=0;resizeLast=1;shadow=0;dashed=0;align=center;arcSize=4;whiteSpace=wrap;html=1;" parent="1" vertex="1">
          <mxGeometry x="440" y="160" width="130" height="90" as="geometry" />
        </mxCell>
        <mxCell id="7XoWv0YTlWbVzO8A-Aqj-27" value="&lt;div&gt;+idEstoque&lt;/div&gt;&lt;div&gt;+idProduto&lt;/div&gt;&lt;div&gt;+quantidade&lt;/div&gt;" style="align=left;strokeColor=none;fillColor=none;spacingLeft=4;fontSize=12;verticalAlign=top;resizable=0;rotatable=0;part=1;html=1;" parent="7XoWv0YTlWbVzO8A-Aqj-26" vertex="1">
          <mxGeometry y="30" width="130" height="60" as="geometry" />
        </mxCell>
        <mxCell id="7XoWv0YTlWbVzO8A-Aqj-28" value="" style="edgeStyle=entityRelationEdgeStyle;fontSize=12;html=1;endArrow=ERmandOne;startArrow=ERmandOne;rounded=0;entryX=0;entryY=0.163;entryDx=0;entryDy=0;entryPerimeter=0;exitX=0.994;exitY=0.15;exitDx=0;exitDy=0;exitPerimeter=0;" parent="1" source="nP1nx30AsUULx4-1qq16-63" target="7XoWv0YTlWbVzO8A-Aqj-27" edge="1">
          <mxGeometry width="100" height="100" relative="1" as="geometry">
            <mxPoint x="300" y="110" as="sourcePoint" />
            <mxPoint x="400" y="10" as="targetPoint" />
          </mxGeometry>
        </mxCell>
        <mxCell id="7XoWv0YTlWbVzO8A-Aqj-29" value="" style="edgeStyle=entityRelationEdgeStyle;fontSize=12;html=1;endArrow=ERmandOne;startArrow=ERmandOne;rounded=0;exitX=1;exitY=0.25;exitDx=0;exitDy=0;entryX=0;entryY=0.144;entryDx=0;entryDy=0;entryPerimeter=0;" parent="1" source="7XoWv0YTlWbVzO8A-Aqj-27" target="nP1nx30AsUULx4-1qq16-40" edge="1">
          <mxGeometry width="100" height="100" relative="1" as="geometry">
            <mxPoint x="300" y="110" as="sourcePoint" />
            <mxPoint x="560" y="80" as="targetPoint" />
          </mxGeometry>
        </mxCell>
        <mxCell id="7XoWv0YTlWbVzO8A-Aqj-30" value="" style="edgeStyle=entityRelationEdgeStyle;fontSize=12;html=1;endArrow=ERmandOne;startArrow=ERmandOne;rounded=0;exitX=0.994;exitY=0.342;exitDx=0;exitDy=0;exitPerimeter=0;entryX=-0.006;entryY=0.4;entryDx=0;entryDy=0;entryPerimeter=0;" parent="1" source="nP1nx30AsUULx4-1qq16-46" target="7XoWv0YTlWbVzO8A-Aqj-22" edge="1">
          <mxGeometry width="100" height="100" relative="1" as="geometry">
            <mxPoint x="330" y="320" as="sourcePoint" />
            <mxPoint x="430" y="220" as="targetPoint" />
          </mxGeometry>
        </mxCell>
        <mxCell id="7XoWv0YTlWbVzO8A-Aqj-32" value="" style="edgeStyle=entityRelationEdgeStyle;fontSize=12;html=1;endArrow=ERoneToMany;rounded=0;exitX=1;exitY=0.175;exitDx=0;exitDy=0;entryX=-0.006;entryY=0.321;entryDx=0;entryDy=0;entryPerimeter=0;exitPerimeter=0;" parent="1" source="nP1nx30AsUULx4-1qq16-48" target="nP1nx30AsUULx4-1qq16-44" edge="1">
          <mxGeometry width="100" height="100" relative="1" as="geometry">
            <mxPoint x="340" y="420" as="sourcePoint" />
            <mxPoint x="440" y="320" as="targetPoint" />
          </mxGeometry>
        </mxCell>
        <mxCell id="7XoWv0YTlWbVzO8A-Aqj-34" value="ProdutoPedido" style="swimlane;childLayout=stackLayout;horizontal=1;startSize=40;horizontalStack=0;rounded=1;fontSize=14;fontStyle=0;strokeWidth=2;resizeParent=0;resizeLast=1;shadow=0;dashed=0;align=center;arcSize=4;whiteSpace=wrap;html=1;" parent="1" vertex="1">
          <mxGeometry x="640" y="200" width="130" height="110" as="geometry" />
        </mxCell>
        <mxCell id="7XoWv0YTlWbVzO8A-Aqj-35" value="+idProduto&lt;br&gt;+idPedido&lt;br&gt;&lt;div&gt;+quantidade&lt;/div&gt;&lt;div&gt;+preço&lt;br&gt;&lt;/div&gt;" style="align=left;strokeColor=none;fillColor=none;spacingLeft=4;fontSize=12;verticalAlign=top;resizable=0;rotatable=0;part=1;html=1;" parent="7XoWv0YTlWbVzO8A-Aqj-34" vertex="1">
          <mxGeometry y="40" width="130" height="70" as="geometry" />
        </mxCell>
        <mxCell id="7XoWv0YTlWbVzO8A-Aqj-36" value="" style="edgeStyle=entityRelationEdgeStyle;fontSize=12;html=1;endArrow=ERmandOne;startArrow=ERmandOne;rounded=0;entryX=0.794;entryY=-0.008;entryDx=0;entryDy=0;exitX=0.994;exitY=0.18;exitDx=0;exitDy=0;exitPerimeter=0;entryPerimeter=0;" parent="1" source="nP1nx30AsUULx4-1qq16-40" target="7XoWv0YTlWbVzO8A-Aqj-34" edge="1">
          <mxGeometry width="100" height="100" relative="1" as="geometry">
            <mxPoint x="340" y="310" as="sourcePoint" />
            <mxPoint x="440" y="210" as="targetPoint" />
          </mxGeometry>
        </mxCell>
        <mxCell id="7XoWv0YTlWbVzO8A-Aqj-37" value="" style="edgeStyle=entityRelationEdgeStyle;fontSize=12;html=1;endArrow=ERmandOne;startArrow=ERmandOne;rounded=0;entryX=0;entryY=0.386;entryDx=0;entryDy=0;entryPerimeter=0;exitX=1;exitY=0.093;exitDx=0;exitDy=0;exitPerimeter=0;" parent="1" source="nP1nx30AsUULx4-1qq16-44" target="7XoWv0YTlWbVzO8A-Aqj-35" edge="1">
          <mxGeometry width="100" height="100" relative="1" as="geometry">
            <mxPoint x="340" y="310" as="sourcePoint" />
            <mxPoint x="440" y="210" as="targetPoint" />
          </mxGeometry>
        </mxCell>
        <mxCell id="7XoWv0YTlWbVzO8A-Aqj-38" value="VendedorTerceiro" style="swimlane;childLayout=stackLayout;horizontal=1;startSize=40;horizontalStack=0;rounded=1;fontSize=14;fontStyle=0;strokeWidth=2;resizeParent=0;resizeLast=1;shadow=0;dashed=0;align=center;arcSize=4;whiteSpace=wrap;html=1;" parent="1" vertex="1">
          <mxGeometry x="40" y="180" width="140" height="80" as="geometry" />
        </mxCell>
        <mxCell id="7XoWv0YTlWbVzO8A-Aqj-39" value="+razão social&lt;br&gt;+CNPJ" style="align=left;strokeColor=none;fillColor=none;spacingLeft=4;fontSize=12;verticalAlign=top;resizable=0;rotatable=0;part=1;html=1;" parent="7XoWv0YTlWbVzO8A-Aqj-38" vertex="1">
          <mxGeometry y="40" width="140" height="40" as="geometry" />
        </mxCell>
        <mxCell id="7XoWv0YTlWbVzO8A-Aqj-40" value="VendedorPrimeiro" style="swimlane;childLayout=stackLayout;horizontal=1;startSize=30;horizontalStack=0;rounded=1;fontSize=14;fontStyle=0;strokeWidth=2;resizeParent=0;resizeLast=1;shadow=0;dashed=0;align=center;arcSize=4;whiteSpace=wrap;html=1;" parent="1" vertex="1">
          <mxGeometry x="220" y="180" width="160" height="70" as="geometry" />
        </mxCell>
        <mxCell id="7XoWv0YTlWbVzO8A-Aqj-41" value="+nome&lt;br&gt;+cpf&lt;div&gt;&lt;br/&gt;&lt;/div&gt;" style="align=left;strokeColor=none;fillColor=none;spacingLeft=4;fontSize=12;verticalAlign=top;resizable=0;rotatable=0;part=1;html=1;" parent="7XoWv0YTlWbVzO8A-Aqj-40" vertex="1">
          <mxGeometry y="30" width="160" height="40" as="geometry" />
        </mxCell>
        <mxCell id="7XoWv0YTlWbVzO8A-Aqj-42" style="edgeStyle=orthogonalEdgeStyle;rounded=0;orthogonalLoop=1;jettySize=auto;html=1;entryX=0.5;entryY=0;entryDx=0;entryDy=0;" parent="1" source="nP1nx30AsUULx4-1qq16-42" target="7XoWv0YTlWbVzO8A-Aqj-38" edge="1">
          <mxGeometry relative="1" as="geometry" />
        </mxCell>
        <mxCell id="7XoWv0YTlWbVzO8A-Aqj-43" style="edgeStyle=orthogonalEdgeStyle;rounded=0;orthogonalLoop=1;jettySize=auto;html=1;entryX=0.5;entryY=0;entryDx=0;entryDy=0;" parent="1" source="nP1nx30AsUULx4-1qq16-42" target="7XoWv0YTlWbVzO8A-Aqj-40" edge="1">
          <mxGeometry relative="1" as="geometry" />
        </mxCell>
        <mxCell id="7XoWv0YTlWbVzO8A-Aqj-48" value="ProdutoVendedor" style="swimlane;childLayout=stackLayout;horizontal=1;startSize=40;horizontalStack=0;rounded=1;fontSize=14;fontStyle=0;strokeWidth=2;resizeParent=0;resizeLast=1;shadow=0;dashed=0;align=center;arcSize=4;whiteSpace=wrap;html=1;" parent="1" vertex="1">
          <mxGeometry x="305" y="40" width="135" height="80" as="geometry" />
        </mxCell>
        <mxCell id="7XoWv0YTlWbVzO8A-Aqj-49" value="+idVendedor&lt;br&gt;+idProduto" style="align=left;strokeColor=none;fillColor=none;spacingLeft=4;fontSize=12;verticalAlign=top;resizable=0;rotatable=0;part=1;html=1;" parent="7XoWv0YTlWbVzO8A-Aqj-48" vertex="1">
          <mxGeometry y="40" width="135" height="40" as="geometry" />
        </mxCell>
        <mxCell id="7XoWv0YTlWbVzO8A-Aqj-59" value="" style="edgeStyle=entityRelationEdgeStyle;fontSize=12;html=1;endArrow=ERmandOne;startArrow=ERmandOne;rounded=0;exitX=1;exitY=0.25;exitDx=0;exitDy=0;entryX=0;entryY=0.25;entryDx=0;entryDy=0;" parent="1" source="nP1nx30AsUULx4-1qq16-42" target="7XoWv0YTlWbVzO8A-Aqj-49" edge="1">
          <mxGeometry width="100" height="100" relative="1" as="geometry">
            <mxPoint x="420" y="220" as="sourcePoint" />
            <mxPoint x="275" y="120" as="targetPoint" />
          </mxGeometry>
        </mxCell>
        <mxCell id="7XoWv0YTlWbVzO8A-Aqj-60" value="" style="edgeStyle=entityRelationEdgeStyle;fontSize=12;html=1;endArrow=ERmandOne;startArrow=ERmandOne;rounded=0;entryX=0;entryY=0.14;entryDx=0;entryDy=0;entryPerimeter=0;exitX=1;exitY=0.75;exitDx=0;exitDy=0;" parent="1" source="7XoWv0YTlWbVzO8A-Aqj-49" target="nP1nx30AsUULx4-1qq16-40" edge="1">
          <mxGeometry width="100" height="100" relative="1" as="geometry">
            <mxPoint x="420" y="160" as="sourcePoint" />
            <mxPoint x="520" y="60" as="targetPoint" />
          </mxGeometry>
        </mxCell>
        <mxCell id="Orzh0CUPrdrKZRpFlpC1-1" value="Cartão" style="swimlane;childLayout=stackLayout;horizontal=1;startSize=40;horizontalStack=0;rounded=1;fontSize=14;fontStyle=0;strokeWidth=2;resizeParent=0;resizeLast=1;shadow=0;dashed=0;align=center;arcSize=4;whiteSpace=wrap;html=1;" vertex="1" parent="1">
          <mxGeometry x="140" y="570" width="100" height="125" as="geometry">
            <mxRectangle x="30" y="640" width="80" height="50" as="alternateBounds" />
          </mxGeometry>
        </mxCell>
        <mxCell id="Orzh0CUPrdrKZRpFlpC1-2" value="+id&lt;br&gt;+numero&lt;br&gt;&lt;div&gt;+titular&lt;/div&gt;&lt;div&gt;+banco&lt;/div&gt;&lt;div&gt;+contacorrente&lt;br&gt;&lt;/div&gt;" style="align=left;strokeColor=none;fillColor=none;spacingLeft=4;fontSize=12;verticalAlign=top;resizable=0;rotatable=0;part=1;html=1;" vertex="1" parent="Orzh0CUPrdrKZRpFlpC1-1">
          <mxGeometry y="40" width="100" height="85" as="geometry" />
        </mxCell>
        <mxCell id="Orzh0CUPrdrKZRpFlpC1-4" value="" style="edgeStyle=entityRelationEdgeStyle;fontSize=12;html=1;endArrow=ERoneToMany;rounded=0;exitX=0;exitY=0.25;exitDx=0;exitDy=0;entryX=1;entryY=0.135;entryDx=0;entryDy=0;entryPerimeter=0;" edge="1" parent="1" source="nP1nx30AsUULx4-1qq16-48" target="Orzh0CUPrdrKZRpFlpC1-2">
          <mxGeometry width="100" height="100" relative="1" as="geometry">
            <mxPoint x="360" y="900" as="sourcePoint" />
            <mxPoint x="460" y="800" as="targetPoint" />
          </mxGeometry>
        </mxCell>
        <mxCell id="Orzh0CUPrdrKZRpFlpC1-7" value="Pagamento" style="swimlane;childLayout=stackLayout;horizontal=1;startSize=40;horizontalStack=0;rounded=1;fontSize=14;fontStyle=0;strokeWidth=2;resizeParent=0;resizeLast=1;shadow=0;dashed=0;align=center;arcSize=4;whiteSpace=wrap;html=1;" vertex="1" parent="1">
          <mxGeometry x="640" y="450" width="100" height="100" as="geometry" />
        </mxCell>
        <mxCell id="Orzh0CUPrdrKZRpFlpC1-8" value="+id&lt;br&gt;&lt;div&gt;+valor&lt;/div&gt;&lt;div&gt;+forma&lt;br&gt;&lt;/div&gt;&lt;div&gt;&lt;br&gt;&lt;/div&gt;" style="align=left;strokeColor=none;fillColor=none;spacingLeft=4;fontSize=12;verticalAlign=top;resizable=0;rotatable=0;part=1;html=1;" vertex="1" parent="Orzh0CUPrdrKZRpFlpC1-7">
          <mxGeometry y="40" width="100" height="60" as="geometry" />
        </mxCell>
        <mxCell id="Orzh0CUPrdrKZRpFlpC1-9" value="Credito" style="swimlane;childLayout=stackLayout;horizontal=1;startSize=40;horizontalStack=0;rounded=1;fontSize=14;fontStyle=0;strokeWidth=2;resizeParent=0;resizeLast=1;shadow=0;dashed=0;align=center;arcSize=4;whiteSpace=wrap;html=1;" vertex="1" parent="1">
          <mxGeometry x="650" y="600" width="80" height="100" as="geometry" />
        </mxCell>
        <mxCell id="Orzh0CUPrdrKZRpFlpC1-10" value="&lt;div&gt;+codigo&lt;br&gt;&lt;/div&gt;&lt;div&gt;+prestação&lt;/div&gt;&lt;div&gt;+juros&lt;br&gt;&lt;/div&gt;" style="align=left;strokeColor=none;fillColor=none;spacingLeft=4;fontSize=12;verticalAlign=top;resizable=0;rotatable=0;part=1;html=1;" vertex="1" parent="Orzh0CUPrdrKZRpFlpC1-9">
          <mxGeometry y="40" width="80" height="60" as="geometry" />
        </mxCell>
        <mxCell id="Orzh0CUPrdrKZRpFlpC1-11" value="Pix" style="swimlane;childLayout=stackLayout;horizontal=1;startSize=35;horizontalStack=0;rounded=1;fontSize=14;fontStyle=0;strokeWidth=2;resizeParent=0;resizeLast=1;shadow=0;dashed=0;align=center;arcSize=4;whiteSpace=wrap;html=1;" vertex="1" parent="1">
          <mxGeometry x="740" y="600" width="60" height="100" as="geometry" />
        </mxCell>
        <mxCell id="Orzh0CUPrdrKZRpFlpC1-12" value="&lt;div&gt;+codigo&lt;/div&gt;&lt;div&gt;+chave&lt;/div&gt;" style="align=left;strokeColor=none;fillColor=none;spacingLeft=4;fontSize=12;verticalAlign=top;resizable=0;rotatable=0;part=1;html=1;" vertex="1" parent="Orzh0CUPrdrKZRpFlpC1-11">
          <mxGeometry y="35" width="60" height="65" as="geometry" />
        </mxCell>
        <mxCell id="Orzh0CUPrdrKZRpFlpC1-13" value="Debito" style="swimlane;childLayout=stackLayout;horizontal=1;startSize=40;horizontalStack=0;rounded=1;fontSize=14;fontStyle=0;strokeWidth=2;resizeParent=0;resizeLast=1;shadow=0;dashed=0;align=center;arcSize=4;whiteSpace=wrap;html=1;" vertex="1" parent="1">
          <mxGeometry x="570" y="600" width="70" height="140" as="geometry" />
        </mxCell>
        <mxCell id="Orzh0CUPrdrKZRpFlpC1-14" value="&lt;div&gt;+codigo&lt;/div&gt;&lt;div&gt;+nome&lt;/div&gt;&lt;div&gt;+conta&lt;/div&gt;+agencia&lt;br&gt;&lt;div&gt;+banco&lt;/div&gt;&lt;div&gt;+CNPJ&lt;/div&gt;" style="align=left;strokeColor=none;fillColor=none;spacingLeft=4;fontSize=12;verticalAlign=top;resizable=0;rotatable=0;part=1;html=1;" vertex="1" parent="Orzh0CUPrdrKZRpFlpC1-13">
          <mxGeometry y="40" width="70" height="100" as="geometry" />
        </mxCell>
        <mxCell id="Orzh0CUPrdrKZRpFlpC1-17" style="edgeStyle=orthogonalEdgeStyle;rounded=0;orthogonalLoop=1;jettySize=auto;html=1;entryX=0.456;entryY=-0.014;entryDx=0;entryDy=0;entryPerimeter=0;" edge="1" parent="1" source="Orzh0CUPrdrKZRpFlpC1-8" target="Orzh0CUPrdrKZRpFlpC1-13">
          <mxGeometry relative="1" as="geometry" />
        </mxCell>
        <mxCell id="Orzh0CUPrdrKZRpFlpC1-18" style="edgeStyle=orthogonalEdgeStyle;rounded=0;orthogonalLoop=1;jettySize=auto;html=1;entryX=0.5;entryY=0;entryDx=0;entryDy=0;" edge="1" parent="1" source="Orzh0CUPrdrKZRpFlpC1-8" target="Orzh0CUPrdrKZRpFlpC1-9">
          <mxGeometry relative="1" as="geometry" />
        </mxCell>
        <mxCell id="Orzh0CUPrdrKZRpFlpC1-19" style="edgeStyle=orthogonalEdgeStyle;rounded=0;orthogonalLoop=1;jettySize=auto;html=1;entryX=0.5;entryY=0;entryDx=0;entryDy=0;" edge="1" parent="1" source="Orzh0CUPrdrKZRpFlpC1-8" target="Orzh0CUPrdrKZRpFlpC1-11">
          <mxGeometry relative="1" as="geometry" />
        </mxCell>
        <mxCell id="Orzh0CUPrdrKZRpFlpC1-21" value="" style="edgeStyle=entityRelationEdgeStyle;fontSize=12;html=1;endArrow=ERmandOne;startArrow=ERmandOne;rounded=0;entryX=-0.006;entryY=0.157;entryDx=0;entryDy=0;exitX=1;exitY=0.373;exitDx=0;exitDy=0;exitPerimeter=0;entryPerimeter=0;" edge="1" parent="1" source="nP1nx30AsUULx4-1qq16-44" target="Orzh0CUPrdrKZRpFlpC1-8">
          <mxGeometry width="100" height="100" relative="1" as="geometry">
            <mxPoint x="530" y="810" as="sourcePoint" />
            <mxPoint x="630" y="710" as="targetPoint" />
          </mxGeometry>
        </mxCell>
      </root>
    </mxGraphModel>
  </diagram>
</mxfile>
